<svg xmlns="http://www.w3.org/2000/svg" xmlns:xlink="http://www.w3.org/1999/xlink" preserveAspectRatio="xMidYMid" width="650" height="250" viewBox="0 0 650 250">
  <defs>
    <style>
      .cls-1 {
        fill: #fff;
        fill-rule: evenodd;
      }
    </style>
  </defs>
  <path d="M558.799,238.250 L558.799,175.413 L608.689,175.413 L608.689,238.250 L558.799,238.250 ZM452.395,238.250 L388.896,12.466 L443.207,12.466 L481.050,174.951 L518.409,12.466 L571.140,12.466 L508.708,238.250 L452.395,238.250 ZM359.260,214.147 C351.995,223.133 344.196,229.113 335.863,232.090 C324.469,236.198 314.147,238.250 304.896,238.250 L227.709,238.250 L227.709,12.466 L304.896,12.466 C320.111,12.466 332.402,15.239 341.769,20.783 C351.135,26.328 358.876,34.286 364.994,44.655 C371.111,55.027 375.546,67.091 378.299,80.848 C381.051,94.609 382.427,109.187 382.427,124.588 C382.427,148.718 380.381,167.431 376.291,180.726 C372.200,194.024 366.523,205.164 359.260,214.147 ZM321.526,76.844 C315.715,68.015 306.081,63.599 292.624,63.599 L279.664,63.599 L279.664,186.964 L292.395,186.964 C303.251,186.964 310.975,185.347 315.563,182.112 C320.150,178.878 323.743,173.232 326.344,165.171 C328.942,157.112 330.243,144.047 330.243,125.974 C330.243,102.052 327.336,85.676 321.526,76.844 ZM187.579,138.218 C193.274,147.717 196.124,159.653 196.124,174.027 C196.124,185.732 194.097,196.258 190.045,205.599 C185.991,214.944 180.449,222.336 173.415,227.777 C169.057,231.166 162.480,233.630 153.688,235.170 C141.990,237.225 134.228,238.250 130.406,238.250 L40.717,238.250 L40.717,12.466 L137.975,12.466 C154.184,12.466 166.628,17.857 175.307,28.638 C183.984,39.419 188.325,52.767 188.325,68.681 C188.325,82.030 185.228,93.477 179.035,103.026 C174.906,109.394 168.865,114.423 160.914,118.120 C172.994,122.023 181.882,128.723 187.579,138.218 ZM132.642,63.753 C129.468,60.057 123.944,58.208 116.069,58.208 L93.131,58.208 L93.131,101.024 L115.725,101.024 C123.829,101.024 129.468,99.152 132.642,95.403 C135.814,91.656 137.402,86.239 137.402,79.154 C137.402,72.585 135.814,67.449 132.642,63.753 ZM138.606,150.077 C134.974,146.023 128.608,143.994 119.510,143.994 L93.131,143.994 L93.131,189.736 L119.625,189.736 C128.571,189.736 134.879,187.606 138.549,183.344 C142.219,179.085 144.054,173.360 144.054,166.172 C144.054,159.499 142.237,154.135 138.606,150.077 Z" class="cls-1"/>
</svg>
